<svg xmlns="http://www.w3.org/2000/svg" xmlns:xlink="http://www.w3.org/1999/xlink" width="190" height="190" viewBox="0 0 190 190">
  <defs>
    <filter id="Tracé_29" x="0" y="0" width="190" height="190" filterUnits="userSpaceOnUse">
      <feOffset dy="3" input="SourceAlpha"/>
      <feGaussianBlur stdDeviation="3" result="blur"/>
      <feFlood flood-opacity="0.161"/>
      <feComposite operator="in" in2="blur"/>
      <feComposite in="SourceGraphic"/>
    </filter>
  </defs>
  <g id="_005-python" data-name="005-python" transform="translate(9 6)">
    <g transform="matrix(1, 0, 0, 1, -9, -6)" filter="url(#Tracé_29)">
      <path id="Tracé_29-2" data-name="Tracé 29" d="M172,86a85.941,85.941,0,0,1-3.717,25.087s0,0,0,.007a85.647,85.647,0,0,1-12.546,25.245v0a86.406,86.406,0,0,1-29.991,25.94,85.312,85.312,0,0,1-20.313,7.512h0A86.01,86.01,0,1,1,172,86Z" transform="translate(9 6)" fill="#264d6f"/>
    </g>
    <path id="Tracé_30" data-name="Tracé 30" d="M131.476,76.438v42.425a18.08,18.08,0,0,1-18.081,18.081H69.935a22.748,22.748,0,0,0-22.746,22.75V180.53H32.979A18.021,18.021,0,0,1,25.622,179a85.746,85.746,0,0,1-15.494-29.208q-.384-3.991-.39-8.519c0-26.358,10.408-39.262,23.241-39.262H92.705V95.884H52.956V76.438c0-9.874,17.579-17.881,39.262-17.881S131.476,66.563,131.476,76.438Z" transform="translate(-6.467 -38.885)" fill="#3876ac"/>
    <circle id="Ellipse_5" data-name="Ellipse 5" cx="7.225" cy="7.225" r="7.225" transform="translate(56.377 31.953)" fill="#f2f2f2"/>
    <path id="Tracé_31" data-name="Tracé 31" d="M262.307,220.416a84.008,84.008,0,0,1-.678,10.969s0,0,0,.007a85.646,85.646,0,0,1-12.546,25.245v0a17.777,17.777,0,0,1-10.011,3.033H179.344V265.8H219.09v16.782a85.314,85.314,0,0,1-20.313,7.512h0a86.342,86.342,0,0,1-58.2-7.013V242.822a18.086,18.086,0,0,1,18.085-18.085h43.46a22.745,22.745,0,0,0,22.746-22.746V181.155H239.07C251.9,181.155,262.307,193.791,262.307,220.416Z" transform="translate(-93.347 -120.298)" fill="#f7cd00"/>
    <path id="Tracé_32" data-name="Tracé 32" d="M316.32,471.89a7.182,7.182,0,0,1-1.035,3.728,85.047,85.047,0,0,1-9.393,2.745h0a7.224,7.224,0,1,1,10.432-6.473Z" transform="translate(-200.462 -308.567)" fill="#f2f2f2"/>
  </g>
</svg>
