<svg xmlns="http://www.w3.org/2000/svg" xmlns:xlink="http://www.w3.org/1999/xlink" width="190" height="190" viewBox="0 0 190 190">
  <defs>
    <filter id="Tracé_46" x="0" y="0" width="190" height="190" filterUnits="userSpaceOnUse">
      <feOffset dy="3" input="SourceAlpha"/>
      <feGaussianBlur stdDeviation="3" result="blur"/>
      <feFlood flood-opacity="0.161"/>
      <feComposite operator="in" in2="blur"/>
      <feComposite in="SourceGraphic"/>
    </filter>
  </defs>
  <g id="_021-mysql" data-name="021-mysql" transform="translate(9 6)">
    <g transform="matrix(1, 0, 0, 1, -9, -6)" filter="url(#Tracé_46)">
      <path id="Tracé_46-2" data-name="Tracé 46" d="M172,86a85.675,85.675,0,0,1-7.361,34.86c-.769,1.741-1.6,3.45-2.482,5.128a85.994,85.994,0,1,1,6.016-65.437q.516,1.674.969,3.384v0q.843,3.191,1.446,6.466.279,1.527.5,3.068c.1.688.2,1.376.277,2.071.155,1.243.277,2.5.376,3.756Q172,82.616,172,86Z" transform="translate(9 6)" fill="#f2f2f2"/>
    </g>
    <g id="Groupe_8" data-name="Groupe 8" transform="translate(108.808 13.326)">
      <path id="Tracé_47" data-name="Tracé 47" d="M367.961,77.014s2.493,2.564,2.92,4.486a2.649,2.649,0,0,0,.57-3.489A2.622,2.622,0,0,0,367.961,77.014Z" transform="translate(-353.157 -64.267)" fill="#5181a2"/>
      <path id="Tracé_48" data-name="Tracé 48" d="M384.229,90.278a28.107,28.107,0,0,0-5.869-2.187,6.664,6.664,0,0,1-4.654-4.209,127.154,127.154,0,0,0-6.094-13.591c-6.553-12.96-13.816-16.947-18.586-20.3-3.131-2.2-7.245-2.643-9.7-2.692a5.443,5.443,0,0,1-3.384-1.274c-2.5-2.106-7.424-4.581-8.99-3.654-1.924,1.141,0,3.777,2.7,7.122s3.278,7.052,5.2,12.037a11.865,11.865,0,0,0,2.85,4.518,3.031,3.031,0,0,1,.744,3.394,25.612,25.612,0,0,0-1.386,14.662c1.211,5.911,3.988,5.841,3.988,5.841-.284-7.9,3.847-11.324,3.847-11.324,3.774,11.534,12.391,20.152,12.391,20.152-6.978-2.492-12.177-13.886-12.177-13.886s-.569.569-1.067,4.346-5.058,6.052-8.4-2.208,1-18.66,1-18.66c-1.924-1-5.911-10.183-5.911-11.608s-1.569-4.556-3.489-6.48-5.7-7.477-1.281-10.039,13.174,4.342,13.174,4.342c13.816-.5,28.057,16.308,30.335,22.29s8.688,17.948,8.688,17.948a30.9,30.9,0,0,1,5.111,2.074Q383.775,88.568,384.229,90.278Z" transform="translate(-323.894 -39.669)" fill="#5181a2"/>
      <path id="Tracé_49" data-name="Tracé 49" d="M498.588,218.47c-.07-.032-.137-.067-.2-.1a13.748,13.748,0,0,1-6.2-6.624c1.144-1.144,3.173-1.8,5.244-2.173q.279,1.527.5,3.068c-.772.151-1.26.242-1.26.242,0,.435.607,1.085,1.538,1.829Q498.444,216.578,498.588,218.47Z" transform="translate(-435.652 -152.497)" fill="#5181a2"/>
    </g>
    <g id="Groupe_9" data-name="Groupe 9" transform="translate(2.145 83.887)">
      <path id="Tracé_50" data-name="Tracé 50" d="M49.044,291.685H42.315a308.879,308.879,0,0,0-2.243-33.645L29.5,291.685H24.048L13.314,258.2s-1.25,9.839-1.422,29.138a85.189,85.189,0,0,1-5.507-16.347c.495-7.143,1.19-14.929,2.124-21.282h8.758l9.986,31.083L37.829,249.71h8.01S49.044,277.107,49.044,291.685Z" transform="translate(-6.385 -249.71)" fill="#ffa600"/>
      <path id="Tracé_51" data-name="Tracé 51" d="M143.153,283.241l6.943-.107s7.8,23.394,7.05,26.278c0,0,5.021-13.993,6.3-26.278h6.836s-3.632,24.782-14.741,37.814c-4.157,4.877-8.822,4.937-13.034,3.1v-3.743s5.77,2.03,8.762-2.243c2.408-3.44.108-9.372-1.995-15.679C148.767,300.859,143.153,283.241,143.153,283.241Z" transform="translate(-96.781 -271.906)" fill="#ffa600"/>
    </g>
    <g id="Groupe_10" data-name="Groupe 10" transform="translate(79.922 83.56)">
      <path id="Tracé_52" data-name="Tracé 52" d="M237.908,287.99l1.816-3.632s12.5,5.554,15.7,0,.107-8.546-6.2-11.857-12.925-7.477-10.041-16.557,18.159-8.439,22.539-4.059l-1.5,3.525s-11.323-4.807-14.42,1.5,5.127,9.293,7.05,10.148,12.6,5.234,11.43,13.032-5.982,12.6-16.984,11.643C243.356,290.767,241.113,290.126,237.908,287.99Z" transform="translate(-237.908 -248.768)" fill="#5181a2"/>
      <path id="Tracé_53" data-name="Tracé 53" d="M351.94,288.467c4.721-3.794,6.747-10.545,6.747-18.239,0-11.868-3.416-21.49-16.909-21.49-11.619,0-16.909,9.622-16.909,21.49s3.868,21.49,16.909,21.49a18.628,18.628,0,0,0,5.146-.678l10.046,5.894,2.457-4.809Zm-10.162-1.9c-7.561,0-9.8-7.319-9.8-16.343s2.138-16.343,9.8-16.343c7.821,0,9.8,7.315,9.8,16.343S349.6,286.571,341.778,286.571Z" transform="translate(-295.656 -248.738)" fill="#5181a2"/>
      <path id="Tracé_54" data-name="Tracé 54" d="M459.03,287.127c-.769,1.741-1.6,3.45-2.482,5.128h-13.23V250.378h6.624v36.748h9.088Z" transform="translate(-374.314 -249.827)" fill="#5181a2"/>
    </g>
  </g>
</svg>
