<svg xmlns="http://www.w3.org/2000/svg" xmlns:xlink="http://www.w3.org/1999/xlink" width="191" height="191" viewBox="0 0 191 191">
  <defs>
    <filter id="Tracé_55" x="0" y="0" width="191" height="191" filterUnits="userSpaceOnUse">
      <feOffset dy="3" input="SourceAlpha"/>
      <feGaussianBlur stdDeviation="3" result="blur"/>
      <feFlood flood-opacity="0.161"/>
      <feComposite operator="in" in2="blur"/>
      <feComposite in="SourceGraphic"/>
    </filter>
  </defs>
  <g id="_026-sass" data-name="026-sass" transform="translate(9 6)">
    <g transform="matrix(1, 0, 0, 1, -9, -6)" filter="url(#Tracé_55)">
      <path id="Tracé_55-2" data-name="Tracé 55" d="M173,86.5q0,4.009-.36,7.923-.275,3.1-.777,6.122A86.561,86.561,0,1,1,173,86.5Z" transform="translate(9 6)" fill="#f2f2f2"/>
    </g>
    <path id="Tracé_56" data-name="Tracé 56" d="M166.789,125.993c-2.623.992-2.517,1.01-3.9-1.518a21.943,21.943,0,0,1-2.8-10.288,23.847,23.847,0,0,1,1.885-8.978c.868-2.291-.261-3.1-2.246-3.308a21.626,21.626,0,0,0-4.381.014c-3.764.385-4.134.71-5.134,4.364a37.208,37.208,0,0,1-2.051,6.411c-2.429,5.066-5.19,9.946-8.022,14.79a12.68,12.68,0,0,1-1.645,2.556,19.178,19.178,0,0,1-3-10.024c-.173-3.513.9-6.779,2.086-10.009a1.576,1.576,0,0,0-.872-2.231,3.783,3.783,0,0,0-1.338-.438,20.392,20.392,0,0,0-7.178.5,2.494,2.494,0,0,0-1.988,2.076,31.685,31.685,0,0,1-2.143,6.761q-4.025,9.035-8.029,18.084c-2.33,5.236-4.625,10.486-7.386,15.514-.194.356-.356.974-.844.851s-.321-.731-.343-1.147c-.159-2.966.65-5.794,1.338-8.625,1.091-4.48,2.284-8.94,3.442-13.406a2.288,2.288,0,0,0-1.289-2.758,3.922,3.922,0,0,0-4.706.311,28.816,28.816,0,0,0,.247-5.02c-.176-3.566-1.829-5.885-4.706-6.422a9.683,9.683,0,0,0-5.967,1.109,30.124,30.124,0,0,0-10.857,8.989,3.933,3.933,0,0,1-1.2,1.119q-8.33,4.539-16.643,9.105a1.009,1.009,0,0,1-1.437-.226,77.4,77.4,0,0,0-9.233-7.961c-4.48-3.5-9.116-6.821-12.982-11.044a21.347,21.347,0,0,1-5.088-8.449c-1.539-5.345-.388-10.324,2.175-15.054,3.033-5.6,7.531-9.917,12.491-13.766A120.381,120.381,0,0,1,78.675,62.918c10.2-4.466,20.774-7.344,32.04-6.91a28.22,28.22,0,0,1,12.77,3.132,9.474,9.474,0,0,1,5.2,7.061,17.272,17.272,0,0,1-2.009,10.754c-3.809,7.517-9.864,12.841-17.021,17.01a56.574,56.574,0,0,1-19.193,6.828,35.432,35.432,0,0,1-11.316.448c-4.339-.66-8.35-2.111-11.319-5.607a1.059,1.059,0,0,0-1.359-.4c-.6.29-.551.819-.494,1.328A4.6,4.6,0,0,0,66.24,97.6a12.192,12.192,0,0,0,4.021,5.172c4.526,3.682,9.889,4.763,15.521,4.872a64.353,64.353,0,0,0,16.308-1.875c12.113-2.9,22.261-8.837,29.668-19.02,4.427-6.087,7.231-12.795,6.984-20.47A17.91,17.91,0,0,0,133.4,53.615c-4.219-4.149-9.455-6.235-15.072-7.488A56.054,56.054,0,0,0,99.364,45.3,78.228,78.228,0,0,0,83.1,48.919,145.093,145.093,0,0,0,59.743,59.285,100.192,100.192,0,0,0,38.549,74.527C32.95,79.932,28.137,85.9,25.426,93.3c-1.158,3.17-1.991,6.429-1.214,9.858a27.815,27.815,0,0,0,6.03,11.679c4.325,5.218,9.632,9.328,15.1,13.254,4.4,3.156,9,6.03,13.219,9.423,1.2.96,1.19.96-.219,1.7-1.645.858-3.308,1.684-4.925,2.6C46.9,145.5,40.6,149.492,35.453,155.046a20.343,20.343,0,0,0-5.052,9.218,86.774,86.774,0,0,0,14.8,16.887c9.607-.748,16.961-5.748,22.395-14.016a28.755,28.755,0,0,0,4.315-13.279,31.042,31.042,0,0,0-1.257-12.28c-.215-.706-1.017-1.409-.7-2.03.293-.572,1.176-.862,1.825-1.236,2.62-1.522,5.246-3.022,7.944-4.572a2.316,2.316,0,0,1-.208,1.285c-1.547,5.674-2.623,11.393-1.448,17.29a24.074,24.074,0,0,0,4.265,10.168c2.383,3.128,7.7,2.771,9.864-.085a47.079,47.079,0,0,0,4.826-8.813c.777-1.666,1.49-3.361,2.231-5.045a56.248,56.248,0,0,0-.056,5.974,11.617,11.617,0,0,0,1.394,5.575,4.063,4.063,0,0,0,5.621,1.56,12.477,12.477,0,0,0,4.95-5.151,239.691,239.691,0,0,0,13.716-27.571c.833-2.023,1.688-4.043,2.63-6.292.145.738.24,1.19.328,1.642a43.037,43.037,0,0,0,4.653,12.866,1.824,1.824,0,0,1-.18,2.291c-2.062,2.807-4.322,5.448-6.549,8.117a69.856,69.856,0,0,0-5.455,6.864c-1.419,2.224-.6,4.5,1.758,5.007a10.1,10.1,0,0,0,2.239.191,23.567,23.567,0,0,0,11.485-3.3c4.777-2.722,7.609-6.712,7.478-12.392a19.614,19.614,0,0,0-1.8-7.436,1.257,1.257,0,0,1,.1-1.4,137.6,137.6,0,0,0,8.918-14.818,12.89,12.89,0,0,1,1.582-2.778c.1.356.183.579.229.809a40.067,40.067,0,0,0,4.166,12.159c.593,1.035.3,1.56-.522,2.252a32.412,32.412,0,0,0-7.068,8.4,15.824,15.824,0,0,0-2.44,8.075,4.315,4.315,0,0,0,5.663,4.4,25.2,25.2,0,0,0,9.109-4.145c5.984-4.381,7.739-9,5.864-15.453-.734-2.539-.72-2.5,1.825-3.266a37.053,37.053,0,0,1,16.894-.826q.964.159,1.906.364.5-3.024.777-6.122C181.208,122.349,173.956,123.271,166.789,125.993ZM49.142,171.414a12.059,12.059,0,0,1-5.007.682,3.853,3.853,0,0,1-3.63-3.944,14.182,14.182,0,0,1,1.762-7.266c2.079-4.166,5.571-6.994,9.134-9.769a104.928,104.928,0,0,1,10.948-7.248c1.14-.678,1.158-.671,1.419.689a20.114,20.114,0,0,1,.529,5.077C64.6,159.141,57.689,168.388,49.142,171.414Zm51.822-47.942a58.607,58.607,0,0,1-3.3,11.594c-1.9,5.148-3.75,10.32-6.14,15.27a12,12,0,0,1-2.009,3.2c-.837.879-1.578.777-2.157-.3-1.13-2.1-.989-4.431-1.172-6.126a35.288,35.288,0,0,1,7.6-21.7A9.512,9.512,0,0,1,99,121.7C100.505,121.311,101.2,121.918,100.964,123.472Zm32.905,25.17a15.859,15.859,0,0,1-6.775,6.246c-.3.152-.7.42-.971.064-.261-.336.159-.558.349-.77,2.828-3.089,5.621-6.2,8.138-9.554.039-.053.134-.06.349-.152A8.329,8.329,0,0,1,133.869,148.641Zm19.528-.12c-.42.2-.907.568-1.317.251-.452-.349-.272-.967-.134-1.44a25.257,25.257,0,0,1,2.7-6.147,22.736,22.736,0,0,1,3.612-4.357c.551-.529.8-.466.985.3a10.361,10.361,0,0,1,.226,2.355C159.435,143.826,157.228,146.717,153.4,148.521Z" transform="translate(-15.83 -29.702)" fill="#cd6699"/>
  </g>
</svg>
