<svg xmlns="http://www.w3.org/2000/svg" width="154.895" height="154.899" viewBox="0 0 154.895 154.899">
  <g id="adjust" transform="translate(0 0)">
    <path id="Tracé_94" data-name="Tracé 94" d="M400.068,65.467A4.538,4.538,0,1,0,395.53,70,4.535,4.535,0,0,0,400.068,65.467Zm0,0" transform="translate(-272.703 -42.499)" fill="#fff"/>
    <path id="Tracé_95" data-name="Tracé 95" d="M340.068,65.467A4.538,4.538,0,1,0,335.53,70,4.535,4.535,0,0,0,340.068,65.467Zm0,0" transform="translate(-230.855 -42.499)" fill="#fff"/>
    <path id="Tracé_96" data-name="Tracé 96" d="M280.072,65.467A4.538,4.538,0,1,0,275.534,70,4.536,4.536,0,0,0,280.072,65.467Zm0,0" transform="translate(-189.01 -42.499)" fill="#fff"/>
    <path id="Tracé_97" data-name="Tracé 97" d="M66.835,208.035h99.427A4.535,4.535,0,0,0,170.8,203.5V185.385a4.535,4.535,0,0,0-4.538-4.533H66.835a4.535,4.535,0,0,0-4.538,4.533V203.5A4.535,4.535,0,0,0,66.835,208.035Zm4.538-18.118h90.352v9.052H71.373Zm0,0" transform="translate(-43.45 -126.138)" fill="#fff"/>
    <path id="Tracé_98" data-name="Tracé 98" d="M150.358,127.427H134.107l-1.879-1.88.012-5.1,1.883-1.874,15.916.018a4.537,4.537,0,0,0,4.538-4.533c0-6.786-3.44-12.9-8.906-17.125.221-.858.149,4.5.149-80.313A16.649,16.649,0,0,0,129.18,0H16.638A16.648,16.648,0,0,0,0,16.62V128.739a16.65,16.65,0,0,0,16.639,16.622h6.987c13.891,16.33,43.348,10.536,48.18-8.614l29.755-.118c4.367,17.759,29.885,24.258,45.023,11.859a21.488,21.488,0,0,0,8.31-16.481,4.537,4.537,0,0,0-4.537-4.579ZM16.638,9.066H129.18a7.567,7.567,0,0,1,7.563,7.554V36.566H9.076V16.62a7.567,7.567,0,0,1,7.562-7.554Zm0,127.228a7.568,7.568,0,0,1-7.563-7.555V45.633H136.744v46.7c-15.326-4.747-32.048,3.2-35.482,16.76H72.136c-2.663-10.517-13.57-18.132-26.311-18.132-14.889,0-27,10.359-27,23.094a4.537,4.537,0,0,0,4.543,4.533l15.913-.018,1.883,1.874.011,5.1-1.878,1.88H23.04a4.536,4.536,0,0,0-4.537,4.579,20.2,20.2,0,0,0,.509,4.288Zm111.268,9.535c-9.7,0-17.708-6.207-17.855-13.836a4.535,4.535,0,0,0-4.537-4.446L67.86,127.7a4.537,4.537,0,0,0-4.518,4.4c-.219,7.57-8.226,13.73-17.852,13.73-7.751,0-14.4-3.906-16.877-9.335h12.56a4.54,4.54,0,0,0,3.212-1.332l4.538-4.543a4.531,4.531,0,0,0,1.326-3.212l-.02-8.856a4.529,4.529,0,0,0-1.334-3.2l-4.543-4.523a4.538,4.538,0,0,0-3.209-1.322l-12.283.013c2.416-5.514,9.108-9.49,16.963-9.49,9.626,0,17.635,6.159,17.853,13.73a4.535,4.535,0,0,0,4.536,4.4h36.973a4.536,4.536,0,0,0,4.536-4.4c.219-7.57,8.228-13.73,17.853-13.73,7.855,0,14.548,3.974,16.963,9.49l-12.285-.013a4.539,4.539,0,0,0-3.209,1.322l-4.543,4.523a4.539,4.539,0,0,0-1.334,3.2l-.019,8.855a4.528,4.528,0,0,0,1.325,3.212l4.538,4.544a4.539,4.539,0,0,0,3.212,1.331h12.561c-2.479,5.43-9.127,9.336-16.877,9.336Zm0,0" fill="#fff"/>
  </g>
</svg>
