<svg xmlns="http://www.w3.org/2000/svg" width="141.687" height="164.236" viewBox="0 0 141.687 164.236">
  <g id="gsap-greensock" transform="translate(0)">
    <path id="Tracé_101" data-name="Tracé 101" d="M22.232,71.8C17.437,74.051,4.747,84.2,2.3,87.211c-2.538,3.008-3.29-1.692-.658-9.494,2.068-6.3,7.332-14.853,16.168-22.185,5.17-4.23,16.544-10.34,23.5-13.913A232.866,232.866,0,0,1,77.223,29.306c1.41-.376-1.692,2.35-2.162,3.854C72.617,40.3,23.829,70.949,23.829,70.949ZM90.947,158c.846,5.076.094,5.452-5.17,6.11s-9.118-1.316-10.528-2.632-1.692-4.23-.282-6.862c.846-1.692,1.692-2.256,2.163-4.324a10.532,10.532,0,0,1,1.222-3.2c.376-.659.47-1.317.564-5.922s0-13.254.47-16.92c.47-3.76,16.733,1.692,16.733,1.692s-3.854,9.588-4.888,11.938-.94,6.862-.94,7.8-.376,2.82-.658,2.914.94,2.538.376,3.948c-.376,1.316.846,4.7.94,5.452Zm6.2-143.73c-.564-3.572,0-10.623.752-11.75,2.35-3.2,14.758-3.572,17.391.188,1.128,1.692,1.034,5.64.846,8.178s-.846,7.99-.94,9.777c-.094,1.316-13.724,3.384-16.732-.188-.846-.94-1.316-6.2-1.316-6.2Zm27.637,134.611c5.734,4.136,10.152,4.888,13.066,6.392s2.162,4.418-2.726,5.264c-3.948.752-10.152-.752-14.288-.752s-13.349.47-15.793-1.222c-2.82-1.974-1.6-5.641-1.6-5.641.752-2.068,2.632-6.674,2.068-10.434a35.349,35.349,0,0,0-2.726-9.306c-1.41-3.478-2.444-12.032-1.127-12.5s.94,0,2.632.376a27.368,27.368,0,0,0,7.238.94,55.406,55.406,0,0,0,9.118-.846c1.41-.282,2.538-.564,2.068,2.35s-1.88,8.366-1.974,12.6-.094,9.118.188,9.964,2.35,1.786,3.854,2.82Z" fill="#010101"/>
    <path id="Tracé_102" data-name="Tracé 102" d="M118.438,50.986C108.1,59.917,88.075,62.361,58.371,73.829,50.757,76.743,30.452,85.485,25.564,94.6c16.45-9.494,22.561,3.572,23.876,17.014,1.222,12.6,7.52,19.177,23.689,18.8,16.639-.376,21.715,9.306,26.321,20.681,8.93-43.524,23.219-51.983,32.43-59.409,19.553-15.887-4.512-43.9-13.442-40.7Z" transform="translate(-13.766 -27.32)" fill="#8ac640"/>
    <path id="Tracé_103" data-name="Tracé 103" d="M107.36,51.28C82.543,59.928,58.008,62.09,29.15,79.857c-6.862,4.23-21.339,13.818-24.159,32.149,10.528-11.657,34.875-26.321,64.673-35.627,15.04-4.7,26.039-7.8,39.387-12.972-.94-6.017-.94-8.367-1.692-12.126Z" transform="translate(-2.688 -27.614)" fill="#8ac640"/>
    <path id="Tracé_104" data-name="Tracé 104" d="M243.677,92.757s-1.786,6.11-5.358,8.085c0,0-2.632.94-7.9-1.974-1.5-.846-2.632-3.76-2.538-4.7a4.386,4.386,0,0,1,1.5-3.29s1.5-2.538,3.29-2.444,4.795.376,5.735-.47c.845-.94,5.452,1.692,5.263,4.794ZM205.324,33.629a73.428,73.428,0,0,1-1.034,7.8c-.094.564-2.914.846-4.982,1.692,3.948,11.28,27.731,11.186,30.833,5.64a40.958,40.958,0,0,0-5.922-3.2c-1.41-.564-1.316-.47-1.41-3.1s-.282-7.52-.47-8.836S207.58,32.313,205.324,33.629Z" transform="translate(-107.327 -17.578)" fill="#010101"/>
    <path id="Tracé_105" data-name="Tracé 105" d="M213.611,33.834s0,2.726-.282,5.358a22.152,22.152,0,0,1-.376,2.914c-.094.564,3.2,2.82,4.136,7.8,4.512,10.058,14.947,5.076,19.271.282a36.333,36.333,0,0,0-6.768-3.572c-1.41-.564-.752-1.786-.846-4.418s-.47-6.486-.658-7.9-12.221-1.786-14.477-.47Z" transform="translate(-114.674 -17.782)" fill="#f0efef"/>
    <g id="Groupe_17" data-name="Groupe 17" transform="translate(97.171 1.387)">
      <path id="Tracé_106" data-name="Tracé 106" d="M211.906,33.629s-.094,1.692-.376,3.666c1.222,1.222,2.82,2.914,4.042,3.948.846.752,2.913.658,4.794.658,1.692,0,3.2.188,3.854-.188a19.636,19.636,0,0,0,4.888-4.042c-.094-1.692-.188-3.29-.282-4.042C228.732,32.313,214.161,32.313,211.906,33.629Z" transform="translate(-211.079 -18.965)" fill="#010101"/>
      <path id="Tracé_107" data-name="Tracé 107" d="M220.733,27.666a20.814,20.814,0,0,1-3.478-.282,5.53,5.53,0,0,1-1.316-.564c-.658-.47-1.316-1.034-2.068-1.6-1.5-1.128-1.6-1.786-1.6-2.068a43.735,43.735,0,0,0-.188-10.9s-.658-2.538,2.914-3.2a46.191,46.191,0,0,1,5.734-.752,30.056,30.056,0,0,1,5.734.752c3.572.658,2.914,3.2,2.914,3.2a43.748,43.748,0,0,0-.188,10.9c0,.282-.094.94-1.6,2.068-1.316.94-2.35,1.974-3.384,2.162A20.821,20.821,0,0,1,220.733,27.666Z" transform="translate(-211.352 -5.858)" fill="#010101"/>
      <path id="Tracé_108" data-name="Tracé 108" d="M219.934,3.006c-6.2,0-7.427,1.692-9.213,3.572-.376.47-.094,3.29.564,9.306h.846a11.246,11.246,0,0,1-.47-3.666c.094-1.974.47-1.88.188-2.35-.376-.564-1.128-1.5.564-2.444s4.324.752,7.52.846c3.2-.094,5.922-1.786,7.614-.846s.94,1.88.564,2.444.094.376.188,2.35a11.261,11.261,0,0,1-.47,3.666h.846c.564-6.016.94-8.648.658-9.118-1.6-2.068-3.2-3.666-9.4-3.76Zm29.8,74.074s-1.786,5.734-5.264,7.708c-.752-.376-.658-.94-1.316-1.786-.188-.282-.846-.47-1.128-.752s-.188-.752-.658-1.128c-.376-.376-.658-.094-1.034-.376-.376-.376-.47-.846-.752-1.127-.188-.188-.94-.282-1.128-.47-.47-.47-4.606-1.316-4.418-2.256a8.179,8.179,0,0,1,1.128-2.444s1.786-2.632,3.572-2.538,3.478.47,4.418-.376C244.187,70.593,250.015,74.072,249.733,77.08Z" transform="translate(-210.553 -3.006)" fill="#010101"/>
      <path id="Tracé_109" data-name="Tracé 109" d="M267.447,73.188s5.922-1.41,9.964,2.444a10.681,10.681,0,0,1,2.538,11.844,9.109,9.109,0,0,1,1.5,8.648c6.2,5.264,3.478,13.349-2.068,18.707a7.3,7.3,0,0,0-6.58-5.17c.188-1.88-4.888-3.384-2.538-8.272-3.572-.846-3.478-3.29-4.042-6.3-.47-3.009,1.222-21.9,1.222-21.9Z" transform="translate(-240.488 -40.663)" fill="#010101"/>
    </g>
    <path id="Tracé_110" data-name="Tracé 110" d="M263.788,77.534s6.862-3.478,10.9.47,2.913,8.272,1.692,11.28c1.034,1.222,3.478,4.7,1.974,8.836-.282.94-2.35.94-3.854,3.384,3.76-2.163,6.11-1.6,6.956,1.127,1.316,4.23-1.6,9.306-4.136,12.126,0-.094-.094-.188-.094-.282a14.339,14.339,0,0,1-3.666,7.144c-1.41,1.5-2.538,1.316-4.136.94-1.88-.47-2.538-1.317-5.17-2.726-1.5-.846-.658-1.88-.658-2.726a1.93,1.93,0,0,1,.47-.846,7.57,7.57,0,0,1,1.6-2.068,3.937,3.937,0,0,1,3.009-1.6c1.786.094,3.666-.282,4.136-.752,0-3.29-3.76-3.384-2.444-9.024.094-.282.564-.752,2.068-.94-2.256-.47-3.29-.564-4.888-2.068a6.939,6.939,0,0,1-2.256-4.042C264.728,92.856,263.788,77.534,263.788,77.534Z" transform="translate(-141.82 -40.989)" fill="#f0efef"/>
    <path id="Tracé_111" data-name="Tracé 111" d="M188.46,59.218a17,17,0,0,0-9.024-6.016c-1.6-.47-2.632.846-4.23,1.786-.47-.282-2.538-1.222-3.666-.564a25.242,25.242,0,0,1-3.008,1.786,5.088,5.088,0,0,0-3.29.188,9.317,9.317,0,0,0-4.888,3.666c-1.128,4.042,19.928,1.034,19.928,1.034Z" transform="translate(-86.326 -28.596)" fill="#010101"/>
    <path id="Tracé_112" data-name="Tracé 112" d="M189.851,60.423c-3.009-1.034-2.538-4.512-9.213-5.076-1.316-.094-2.162.94-3.1,1.6a5.874,5.874,0,0,1,1.222,1.974,7.809,7.809,0,0,0-3.854-2.444c-1.41-.282-2.35.752-3.854,1.5a9.78,9.78,0,0,1,.94,1.316,3.847,3.847,0,0,0-4.042-.47,10.38,10.38,0,0,0-5.358,3.948c-1.128,4.042,18.989-.47,18.989-.47Z" transform="translate(-87.529 -29.801)" fill="#8ac640"/>
    <path id="Tracé_113" data-name="Tracé 113" d="M258.8,65.5s0-1.034-.094-1.974c0-.188-.752-.658-.752-.846l-.188-.188a3.578,3.578,0,0,1,2.632-.376,3.727,3.727,0,0,1,1.88,1.974c2.162-.752,2.35.094,3.384,1.222,2.256-.47,2.538.376,3.948,2.444a16.662,16.662,0,0,0-4.982.282c-3.2.47-5.828-2.632-5.828-2.538Z" transform="translate(-138.806 -33.371)" fill="#010101"/>
    <path id="Tracé_114" data-name="Tracé 114" d="M259.19,67.235s.564-.47.376-.564c1.034-.564,2.444-1.222,3.1.564,2.162-.752,2.444.282,3.478,1.41,2.632-1.222,2.82.282,3.008.94a37.124,37.124,0,0,0-3.76.282C262.2,70.337,259.1,67.141,259.19,67.235Z" transform="translate(-139.571 -35.579)" fill="#8ac640"/>
    <path id="Tracé_115" data-name="Tracé 115" d="M182.478,63.5a29.931,29.931,0,0,0,9.87,1.6c4.512-.376,12.22-.752,16.356,1.692a15.823,15.823,0,0,1,8.178-.47c3.949,1.034,11.186,7.8,9.025,14.946a5.541,5.541,0,0,1-2.82,1.692,9.73,9.73,0,0,1-.564,5.828c-1.316,2.538-4.23,7.427-4.324,14.194-.094,1.128-.282,3.478-.47,4.606-7.332-.282-18.612-3.008-29.7-2.82.094-1.222.188-1.974.282-3.2h.282c-.564-3.1-.752-4.7-1.316-7.05a31.115,31.115,0,0,1-10.528-9.87c-3.1-4.982,5.734-21.15,5.734-21.15Zm36.285,50.761s5.828,20.869-1.034,29.611a12.482,12.482,0,0,1-1.316,8.366c-.376,1.88-.846,3.572-1.128,5.452-1.222,7.8-3.291,11.092-3.854,23.594l-5.641-.094s-.658-9.024-2.632-13.818c-1.127-2.726-5.546-6.392-5.358-10.058.188-2.82.752-5.17,5.546-8.931.376-5.452-5.077-10.622-4.23-30.927Z" transform="translate(-94.82 -34.195)" fill="#010101"/>
    <path id="Tracé_116" data-name="Tracé 116" d="M219.553,113.416c1.5,9.588,4.982,23.783-1.316,30.738a14.173,14.173,0,0,1,.094,5.358,21.927,21.927,0,0,1-1.034,3.666,33.734,33.734,0,0,0-1.6,7.52c-1.222,7.8-1.222,8.179-1.786,20.681l-5.641-.094s-.658-9.024-2.632-13.818c-1.127-2.726-3.478-5.076-3.666-8.742-.188-2.82,1.786-8.46,6.486-8.272-.282-11.374-5.546-9.118-6.956-32.807ZM184.96,63.5a22.254,22.254,0,0,0,4.324.846,55.472,55.472,0,0,0,6.862-.094c4.512-.376,10.9-.846,15.135,1.6a14.561,14.561,0,0,1,4.888-.564c1.128.094,2.256,1.034,3.572,1.41,4.136,1.034,8.084,7.9,6.3,14.1-.188.47-1.5,0-3.008.47A12.452,12.452,0,0,1,222,88.788a27.17,27.17,0,0,0-3.29,15.229c-9.87-.47-14.288-1.128-24.065-1.6a56.483,56.483,0,0,1-1.5-8.742,9.367,9.367,0,0,0,3.1-2.35c-2.82.47-3.948.282-5.641-.658a28.037,28.037,0,0,1-6.2-5.922c-.188-.188-1.222,2.913-3.572,3.008-.846-1.222,2.726-4.7,2.068-6.016-2.35-4.795,2.069-18.237,2.069-18.237Z" transform="translate(-97.303 -34.195)" fill="#f0efef"/>
    <path id="Tracé_117" data-name="Tracé 117" d="M229.78,152.226s.188,3.384.188,4.23c0,.94.752,3.76.846,5.076-1.034,1.786-5.546,5.828-13.724,7.332-8.084,1.692-18.8-11-18.8-11,.282-1.222,1.222-4.795,1.88-6.674a2.982,2.982,0,0,0,.282-.846C201.3,149.124,229.78,152.226,229.78,152.226Z" transform="translate(-106.778 -80.807)" fill="#010101"/>
    <path id="Tracé_118" data-name="Tracé 118" d="M231.441,150.319a27.106,27.106,0,0,0,.658,5.546c.47,2.726,1.222,4.512,1.222,6.3,0,5.452-7.144,4.512-13.161,4.7-8.084,1.692-14.946-11-14.946-11A53.7,53.7,0,0,1,207,149.191c.094-1.128.282-2.538.376-3.2a240.2,240.2,0,0,1,24.253,1.127,8.153,8.153,0,0,1-.187,3.2Z" transform="translate(-110.507 -78.618)" fill="#f0efef"/>
    <path id="Tracé_119" data-name="Tracé 119" d="M205.306,171.824s-4.982-11.092-19.929-7.8c-3.572,10.058-8.366,21.621-5.264,34.123-3.1,4.23-6.674,6.581-6.674,14.382s.376,9.118.376,9.118l11,.564a32.843,32.843,0,0,0,4.982-9.588,20.394,20.394,0,0,0,.47-6.862,7.487,7.487,0,0,0,2.162-4.418,21.4,21.4,0,0,0,8.46-9.682c2.914-6.205,2.162-11.563,4.418-19.836Z" transform="translate(-93.396 -87.997)" fill="#010101"/>
    <path id="Tracé_120" data-name="Tracé 120" d="M208.51,171.449c-.282-1.034-4.042-11.186-17.954-8.178-8.178,21.809-5.17,30.833-3.948,34.781-5.546,7.05-8.084,8.554-6.956,22.843h7.332c3.384-5.358,4.136-7.332,4.324-14.382,0-.282-1.034.564-1.786,1.5.564-2.914,2.162-3.478,3.384-5.264a5.57,5.57,0,0,0,1.034-3.384c6.58-4.418,9.024-9.964,10.434-15.7C205.5,179.721,206.818,173.235,208.51,171.449Z" transform="translate(-96.6 -87.622)" fill="#f0efef"/>
    <g id="Groupe_18" data-name="Groupe 18" transform="translate(60.199 28.164)">
      <path id="Tracé_121" data-name="Tracé 121" d="M175.727,148.846a19.764,19.764,0,0,1,4.795.846,4.963,4.963,0,0,1,3.008,2.162c.846.941,2.914,2.35,2.538,3.76-.188.752-.658.94-1.316,1.6-.282.282-2.35,2.538-2.82,2.82-.282.188-.658.47-.94.658l-1.41.94a4.408,4.408,0,0,1-2.632.658A6.2,6.2,0,0,1,173.1,160.6s-.188-.752.188-1.128a13.554,13.554,0,0,1-2.538-2.82,4.763,4.763,0,0,1-.188-3.572c.188-.847,3.854-3.2,5.17-4.231Zm2.35,91.464-.282,2.35s-.846,1.034-7.144.94c-6.392-.094-8.084-2.068-8.648-3.1l-.376-2.444s1.222-1.786,1.5-1.786c2.068.188,9.118,3.008,14.007,3.76C177.608,240.028,177.7,240.216,178.078,240.31Zm13.63-4.794c0,1.034-.094,1.034-.094,2.068,1.128.846,3.949,1.316,9.306,1.222,7.8-.188,15.04,2.35,23.876.846l.094-1.692-.846-.094-31.3-2.538Z" transform="translate(-147.235 -108.317)" fill="#010101"/>
      <path id="Tracé_122" data-name="Tracé 122" d="M181.776,191.516h2.35c5.077-.188,9.871.94,15.04,1.222,2.726-.094,6.11-.752,5.828-2.726l-26.7-2.256c-1.6,1.786-.377,3.29,3.478,3.76Zm-30.645-39.575c.846.564,6.58,3.948,15.886,3.478-.188,1.786-.094,5.264-4.23,11.374-2.068,3.008-3.854,8.272-4.23,14.947.094,1.5.94,2.82-.188,4.794A53.951,53.951,0,0,0,161,191.7c.752,1.5,1.128,3.2-3.854,3.291-5.076.094-13.254-.47-12.126-4.418.564-2.068,2.162-4.23,2.35-5.077s.188-3.384,1.786-5.076c1.41-4.7.94-9.212.659-13.442-.47-4.418-.564-11.468,1.316-15.04Zm8.742-76.612c6.674-8.931,1.034-16.074-9.682-13.913-4.324.846-8.648,3.854-8.931,9.306-1.41.188-4.606.376-6.2,6.2-1.222,4.512-1.88,5.358-4.042,7.614-1.41,1.6.094,4.888,1.128,7.239,3.478,8.084,14.194,8.836,21.433,14.946a10.43,10.43,0,0,0,5.734-5.17c-6.11-7.239-4.795-10.058-7.239-13.818C154.7,86.8,160.719,83.131,159.873,75.329Z" transform="translate(-130.44 -61.027)" fill="#010101"/>
    </g>
    <path id="Tracé_123" data-name="Tracé 123" d="M162.714,76.055c.376-.564,1.034-1.786,1.316-2.256.094-.094,1.128,1.692,1.222,1.6,2.538-4.136,3.2-10.153.282-10.717a16.66,16.66,0,0,1-2.914-.752c-1.88-.658-3.572-.658-6.58-.094-4.136.752-8.272,3.76-8.272,8.084,0,.282,2.913,1.128,3.76,4.606-1.41-1.974-3.854-4.136-6.768-2.256-3.1,1.974-1.5,6.486-5.64,11.186-1.41,1.6-1.222,3.478.282,7.238,2.444,5.922,14.007,9.118,20.3,14.758a8.508,8.508,0,0,0,3.29-3.29A33.424,33.424,0,0,1,155.851,92.6c-1.5-3.478-3.2-5.452-6.486-8.085a17.128,17.128,0,0,1,3.76,1.88,3.744,3.744,0,0,0,3.2.282c4.043-1.409,6.2-7.049,6.393-10.621Z" transform="translate(-74.399 -34.152)" fill="#f0efef"/>
    <path id="Tracé_124" data-name="Tracé 124" d="M233.9,89.666c-.282,3.572-2.914,1.786-4.324,1.128a21.842,21.842,0,0,0-8.931-2.068,47.345,47.345,0,0,0-11.186,1.222c-5.076,1.41-6.581,1.316-8.836.188a67.322,67.322,0,0,1-6.2-4.23,3.348,3.348,0,0,0,.846,2.162,17.345,17.345,0,0,0,7.614,4.606,8.28,8.28,0,0,0,4.795-.188c8.366-2.068,17.2-2.444,24.628,2.068.376.188,1.692-.376,2.256-1.222C235.308,92.11,233.9,89.666,233.9,89.666Z" transform="translate(-104.692 -46.26)" fill="#010101"/>
    <path id="Tracé_125" data-name="Tracé 125" d="M187.291,171.658a18.183,18.183,0,0,1,2.726,1.6,2.078,2.078,0,0,1-1.222-.376A13.263,13.263,0,0,1,187.291,171.658Z" transform="translate(-100.855 -92.437)" fill="#0a1825"/>
    <path id="Tracé_126" data-name="Tracé 126" d="M229.374,7.392c-.282-.846-2.35-2.35-7.144-2.35-5.17,0-6.674,1.6-6.768,2.444,0,.282-.376,3.291-.47,4.512,0,0,0,1.5.094,3.76.094,1.5.47,2.35.658,4.324a10.635,10.635,0,0,0,1.786,5.076,4.331,4.331,0,0,0,1.316.658,19.235,19.235,0,0,0,6.956,0c1.034-.282,2.35-2.068,2.632-3.666.376-1.974.752-3.384.846-4.606.188-1.222.282-3.948.376-4.7a19.752,19.752,0,0,0-.282-5.452Z" transform="translate(-115.772 -2.715)" fill="#f0efef"/>
    <path id="Tracé_127" data-name="Tracé 127" d="M223.933,261.892s4.982,2.162,17.3.282c0,0-3.478,17.485-1.88,26.226,0,0,1.6,2.256,13.442,6.58,0,0,5.264,1.316,5.076,3.949,0,0,.188.564-6.2.376s-12.408-1.316-16.639-1.316-8.742.188-9.494-1.034c-.846-1.128.188-4.042,1.41-5.735,1.317-1.786.94-3.1.846-6.3-.283-8.366-6.675-17.014-3.855-23.03Z" transform="translate(-120.201 -141.028)" fill="#010101"/>
    <path id="Tracé_128" data-name="Tracé 128" d="M222.238,265.3c-.658.94.094,4.512,1.034,7.99s3.009,5.546,3.478,11.28c.47,5.64.564,6.392-1.034,9.682s-2.068,6.3,3.478,6.392,8.554-.094,14.194.752,7.614,1.128,10.717.658,3.76-1.5,2.444-2.444-6.768-1.974-9.118-3.854c-2.256-1.692-8.648-4.512-8.742-5.264a97.05,97.05,0,0,1,.094-14.758c.47-3.009,1.128-7.332,1.316-8.46s1.128-2.256-.47-1.88a54.415,54.415,0,0,1-12.126.94c-4.512-.281-4.982-1.316-5.264-1.033Z" transform="translate(-119.54 -142.836)" fill="#8ac640"/>
    <path id="Tracé_129" data-name="Tracé 129" d="M225.176,297.725a15.035,15.035,0,0,0,5.734,1.316s-.659,3.1.376,4.982-7.52.752-7.52.752l-.376-6.674Zm24.911,8.084a2.347,2.347,0,0,0,1.316-3.76c-1.316-1.6-2.444-1.88-.752-1.974s7.9,3.666,7.9,3.666l-3.2,2.914ZM221.7,272.344a25.464,25.464,0,0,0,8.272.846,38.4,38.4,0,0,0,9.777-1.41c2.726-.94,1.6,1.034,1.6,1.034l-1.5,1.41a26.688,26.688,0,0,1-9.4,1.316c-6.862-.094-8.931-.846-8.931-.846Zm.188,4.7a25.465,25.465,0,0,0,8.272.846c2.82-.094,6.58-.094,9.306-1.128,1.128-.376.47,1.222.47,1.222l-.47.846a28.953,28.953,0,0,1-9.4,1.222c-6.862-.094-8.084-.658-8.084-.658Z" transform="translate(-119.282 -146.216)" fill="#010101" opacity="0.3"/>
    <path id="Tracé_130" data-name="Tracé 130" d="M223.933,261.892a35.311,35.311,0,0,0,17.391.94s-3.572,16.826-1.974,25.475c0,0,1.6,2.256,13.442,6.58,0,0,5.264,1.316,5.076,3.948,0,0,.188.564-6.2.376s-12.408-1.316-16.639-1.316-8.742.188-9.494-1.034c-.846-1.128.188-4.042,1.41-5.734,1.317-1.786.94-3.1.846-6.3C227.5,276.556,221.112,267.908,223.933,261.892Z" transform="translate(-120.201 -141.028)" fill="none"/>
    <path id="Tracé_131" data-name="Tracé 131" d="M223.933,261.892a35.962,35.962,0,0,0,17.391.846s-3.572,16.921-1.974,25.569c0,0,1.6,2.256,13.442,6.58,0,0,5.264,1.316,5.076,3.948,0,0,.188.564-6.2.376s-12.5-1.974-16.639-1.316c-4.418.752-8.742.47-9.494-1.034-.658-1.222.188-4.042,1.41-5.734,1.317-1.786.94-3.1.846-6.3C227.5,276.556,221.112,267.908,223.933,261.892Z" transform="translate(-120.201 -141.028)" fill="none"/>
    <path id="Tracé_132" data-name="Tracé 132" d="M208.881,140.7c0,.658,7.332,4.324,11.374,5.076s12.5,0,13.818-.282l-.188,1.316s-10.058,1.5-17.766-.564-6.862-2.538-6.862-2.538Z" transform="translate(-112.482 -75.766)" fill="#010101"/>
    <path id="Tracé_133" data-name="Tracé 133" d="M169.309,285.267a15.685,15.685,0,0,0,7.8,1.034c.376-.094,0-6.486,1.034-9.4,1.5-4.042,3.948-7.332,5.076-14.476a58.9,58.9,0,0,1-10.81-2.163C169.4,269.475,170.438,277.37,169.309,285.267Zm6.3,5.922c.658.188,1.128.94,1.316.47.376-.846-.658-2.444-.752-3.572v-.094c-.846-.752-6.58-.846-6.2-.47-.658,1.222-1.692,1.034-2.068,3.478-.188,1.222,1.316.188,2.726.094-2.538,1.692-5.452,3.854-5.922,5.734-.564,2.632.376,3.384,3.2,4.795a30.35,30.35,0,0,0,7.614.564c2.538-.47,3.009-1.692,2.256-3.384A34.122,34.122,0,0,1,175.608,291.189Z" transform="translate(-88.608 -140.15)" fill="#f0efef"/>
    <path id="Tracé_134" data-name="Tracé 134" d="M189.995,62.686c3.1,1.786,7.427,1.316,9.024,1.222.376,0,4.136-.658,4.324-.564.376.094.376.376.376.376a12.2,12.2,0,0,1-4.606.94c-3.008.188-6.58,0-8.554-.94C188.209,62.686,189.995,62.686,189.995,62.686Zm31.961,1.786c.564.376,4.23,1.786,5.828,3.478,1.41,1.5.658,1.41.376,1.034a22.422,22.422,0,0,0-4.418-2.914,8.1,8.1,0,0,1-2.538-1.5C221.2,64.378,221.956,64.472,221.956,64.472Z" transform="translate(-101.962 -33.756)" fill="#010101"/>
    <path id="Tracé_135" data-name="Tracé 135" d="M186.484,151.05c2.726-.188,5.546.47,7.332,2.35.94.94,2.444,1.974,2.256,2.914a4.873,4.873,0,0,1-1.034,1.6c-.282.376-1.128,1.222-1.41,1.5-.376.282-1.692,1.316-1.974,1.5s-.658.659-.94.752a3.258,3.258,0,0,1-2.914-.376c-.94-.47.188-.564-.846-1.316-2.538-1.786-3.948-3.009-2.914-6.486C184.135,152.836,185.169,152.084,186.484,151.05Z" transform="translate(-98.921 -81.323)" fill="#f0efef"/>
    <path id="Tracé_136" data-name="Tracé 136" d="M95.676,103.349c-8.46,3.384-29.987,14.1-36.1,17.391,5.076,3.2,7.426,10.9,8.178,18.706.094.752.188,1.41.282,2.162a9.045,9.045,0,0,0,.282,1.41.563.563,0,0,0,.094.376c5.546-15.134,25.38-31.115,26.133-32.337.376-.564-.47-3.008.846-5.358,1.692-3.009,4.983-4.325.282-2.351Zm20.117,70.972c4.324-8.648,4.418-16.921,4.324-26.6,0-4.042,2.914-9.777,1.41-8.178-5.641,6.3-19.835,18.143-30.081,18.8C105.828,157.87,111.468,165.108,115.793,174.321Z" transform="translate(-32.083 -55.148)" fill="#010101" opacity="0.4"/>
    <path id="Tracé_137" data-name="Tracé 137" d="M41.654,129.822c5.358-3.854,33.089-18.612,39.763-20.68,6.674-2.162,4.606-4.7,4.606-4.7S58.95,116.1,42.782,126.156" transform="translate(-22.431 -56.241)" fill="#010101"/>
    <path id="Tracé_138" data-name="Tracé 138" d="M198.679,69.641c-2.162-.846-3.854,1.692-3.29,4.136s5.641,5.17,5.358,14.1c-.188,7.332-1.786,10.34-1.786,10.34l-3.572-4.512s-.564-10.153-1.786-11.657-5.076-4.23-6.58-5.64,1.692-3.29,1.5-5.922c-.188-2.538,1.6-7.614,1.6-7.614Zm13.067,40.045c-.188,7.05,1.41,17.485,2.068,22.467s1.5,5.358,0,7.614c-1.5,2.162-3.478,5.734-3.478,5.734l-6.486-.564s5.17-6.58,5.452-7.8-2.632-10.528-2.632-10.528Zm-12.5-65.8A8.307,8.307,0,0,0,204.7,48.96c1.5.564,7.426,1.316,9.777-1.316,1.034-1.222.376-4.512.376-4.512l-5.358,4.324-7.238-1.316-.846-2.162Z" transform="translate(-100.494 -23.226)" fill="#010101" opacity="0.4"/>
    <path id="Tracé_139" data-name="Tracé 139" d="M214.318,58.816c2.444,1.6,8.554,3.1,10.246,3.384,1.692.376,4.418-1.786,5.734-2.35,1.41-.658,3.854-1.034,6.674,1.5.282.282-.658,1.5-.658,1.5a10.824,10.824,0,0,1-1.41-.47,4.248,4.248,0,0,0-2.538-.564c-4.7.564-5.452,2.162-9.588,1.222s-5.17-1.692-9.212-1.5" transform="translate(-115.004 -31.672)" fill="#8ac640" stroke="#010101" stroke-linejoin="round" stroke-miterlimit="10" stroke-width="1.586"/>
    <path id="Tracé_140" data-name="Tracé 140" d="M213.144,59.427a81.084,81.084,0,0,0,10.81,3.1c1.692.376,4.418-1.316,5.734-2.162,2.35-1.5,5.358-.282,6.768,1.316.94,1.034,1.316,1.692,1.316,1.974,0,.376-1.128,0-1.128,0a12.2,12.2,0,0,1-1.974-.752,4.627,4.627,0,0,0-2.632-.846c-4.7.564-5.641,2.162-9.682,1.222s-5.076-1.786-9.4-1.5" transform="translate(-114.676 -32.001)" fill="#8ac640"/>
    <path id="Tracé_141" data-name="Tracé 141" d="M115.431,193.512c-.188-.188.188-.376,0-.376a5.419,5.419,0,0,1-3.854-2.256c-4.042-5.828-9.964-9.682-20.68-9.4-16.075.376-22.467-6.2-23.689-18.8-.658-6.862-2.538-13.536-6.392-17.3l-2.256,1.41c4.324,3.76,5.734,9.87,6.674,18.236,1.5,12.6,11.656,18.425,23.5,18.612,12.314.188,16.732,2.726,21.338,8.931a7.384,7.384,0,0,0,4.512,2.914Z" transform="translate(-31.534 -78.288)" fill="#010101"/>
    <path id="Tracé_142" data-name="Tracé 142" d="M272.682,118.7c.282,1.41,1.034,4.136,2.538,5.452.659.658.752.846.188.846s-4.7-.188-4.7-.188l-1.128-1.974Z" transform="translate(-145.168 -63.919)" fill="#010101" opacity="0.4"/>
  </g>
</svg>
