<svg xmlns="http://www.w3.org/2000/svg" xmlns:xlink="http://www.w3.org/1999/xlink" width="189.995" height="190" viewBox="0 0 189.995 190">
  <defs>
    <filter id="Tracé_82" x="0" y="0" width="189.995" height="190" filterUnits="userSpaceOnUse">
      <feOffset dy="3" input="SourceAlpha"/>
      <feGaussianBlur stdDeviation="3" result="blur"/>
      <feFlood flood-opacity="0.161"/>
      <feComposite operator="in" in2="blur"/>
      <feComposite in="SourceGraphic"/>
    </filter>
  </defs>
  <g id="symfony_white_03" transform="translate(-34.815 -22.369)" style="isolation: isolate">
    <g id="compacte" transform="translate(43.815 28.369)" style="isolation: isolate">
      <g id="Groupe_15" data-name="Groupe 15">
        <g transform="matrix(1, 0, 0, 1, -9, -6)" filter="url(#Tracé_82)">
          <path id="Tracé_82-2" data-name="Tracé 82" d="M129.81,28.369a86,86,0,1,0,86,85.993A85.994,85.994,0,0,0,129.81,28.369Zm46.38,49.775c-3.982.138-6.732-2.242-6.856-5.855a6.152,6.152,0,0,1,1.205-3.84c.888-1.739,1.078-1.938,1.055-2.694-.081-2.277-3.519-2.363-4.461-2.319-12.91.426-16.313,17.849-19.071,32.015l-1.351,7.471c7.434,1.087,12.711-.253,15.655-2.158,4.145-2.691-1.159-5.456-.491-8.515a6.081,6.081,0,0,1,5.77-4.688c3.156-.078,5.407,3.2,5.335,6.519-.112,5.493-7.4,13.039-21.972,12.731-1.776-.041-3.412-.166-4.933-.35l-2.749,15.176c-2.461,11.495-5.735,27.2-17.437,40.9-10.052,11.948-20.255,13.807-24.823,13.96-8.547.288-14.215-4.268-14.414-10.351-.2-5.888,5.011-9.1,8.428-9.217a7.294,7.294,0,0,1,7.837,6.962c.117,3.226-1.566,4.232-2.68,4.839-.742.6-1.863,1.207-1.822,2.533a2.215,2.215,0,0,0,2.536,1.819,13.5,13.5,0,0,0,7.689-3.107c8.327-6.939,11.531-19.028,15.727-41.036l.88-5.338c1.432-7.157,3.019-15.138,5.439-23.092-5.87-4.419-9.386-9.9-17.283-12.039-5.408-1.469-8.71-.222-11.027,2.711a7.993,7.993,0,0,0,.817,10.645l4.384,4.85c5.376,6.21,8.314,11.044,7.209,17.544-1.756,10.378-14.118,18.341-28.739,13.841-12.478-3.844-14.807-12.678-13.31-17.544,1.32-4.283,4.723-5.093,8.054-4.071,3.564,1.1,4.959,5.434,3.941,8.76a13.073,13.073,0,0,1-.672,1.748,22.42,22.42,0,0,0-1.509,2.792c-.8,2.611,2.779,4.468,5.273,5.234,5.583,1.714,11.027-1.2,12.409-5.721,1.285-4.149-1.342-7.046-2.429-8.156l-5.286-5.66c-2.417-2.693-7.739-10.2-5.143-18.633a18.046,18.046,0,0,1,6.164-8.984A22.231,22.231,0,0,1,113.7,84.149c8.65,2.487,12.8,8.207,18.191,12.625,3.016-8.846,7.193-17.5,13.48-24.811,5.678-6.655,13.3-11.476,22.04-11.777s15.327,3.669,15.544,9.932C183.043,72.783,181.514,77.966,176.19,78.144Z" transform="translate(-34.82 -22.37)" fill="#fff"/>
        </g>
      </g>
    </g>
  </g>
</svg>
