<svg xmlns="http://www.w3.org/2000/svg" xmlns:xlink="http://www.w3.org/1999/xlink" width="190" height="190" viewBox="0 0 190 190">
  <defs>
    <filter id="Tracé_33" x="0" y="0" width="190" height="190" filterUnits="userSpaceOnUse">
      <feOffset dy="3" input="SourceAlpha"/>
      <feGaussianBlur stdDeviation="3" result="blur"/>
      <feFlood flood-opacity="0.161"/>
      <feComposite operator="in" in2="blur"/>
      <feComposite in="SourceGraphic"/>
    </filter>
  </defs>
  <g id="_006-react" data-name="006-react" transform="translate(9 6)">
    <g transform="matrix(1, 0, 0, 1, -9, -6)" filter="url(#Tracé_33)">
      <path id="Tracé_33-2" data-name="Tracé 33" d="M172,86A86,86,0,1,1,86,0,85.882,85.882,0,0,1,172,86Z" transform="translate(9 6)" fill="#5adafd"/>
    </g>
    <g id="Groupe_6" data-name="Groupe 6" transform="translate(2.534 22.831)">
      <path id="Tracé_34" data-name="Tracé 34" d="M204.224,179.554c-.4-2.706-.937-5.494-1.6-8.344q-.874-3.754-2.029-7.645a166.789,166.789,0,0,0-7.915-21.019q-2.122-4.686-4.563-9.4-2.148-4.144-4.532-8.277t-4.9-8.063q-2.849-4.46-5.855-8.646a165.991,165.991,0,0,0-14.244-17.369q-2.785-2.943-5.606-5.574-3.206-3-6.431-5.56c-14-11.117-26.537-14.455-35.3-9.4S99.1,87.849,101.73,105.538c.4,2.706.937,5.494,1.6,8.344q.864,3.754,2.025,7.645a166.047,166.047,0,0,0,7.919,21.019q2.117,4.686,4.56,9.393,2.148,4.149,4.532,8.281t4.9,8.063q2.854,4.465,5.855,8.649A165.9,165.9,0,0,0,147.37,194.3q2.786,2.943,5.609,5.578,3.206,3,6.427,5.557a64.231,64.231,0,0,0,14.736,9.074,85.635,85.635,0,0,0,29.995-14.237C205.372,194.574,205.418,187.6,204.224,179.554ZM196.34,198.99c-1.022,4.416-2.9,7.442-5.585,8.99s-6.241,1.664-10.576.344c-4.7-1.436-10.18-4.574-15.859-9.084q-2.864-2.275-5.736-4.939-2.812-2.612-5.609-5.571c-3.194-3.38-6.354-7.08-9.435-11.05q-3.085-3.975-6.059-8.295c-2.868-4.167-5.637-8.554-8.27-13.118s-5.051-9.155-7.224-13.721q-2.253-4.723-4.153-9.393c-1.9-4.654-3.524-9.242-4.855-13.7-.772-2.6-1.45-5.146-2.015-7.642-.583-2.541-1.057-5.027-1.415-7.438-1.067-7.171-1.042-13.49.063-18.274,1.022-4.416,2.9-7.442,5.585-8.99a10.035,10.035,0,0,1,5.093-1.257,18.874,18.874,0,0,1,5.483.916c4.7,1.432,10.18,4.574,15.859,9.081q2.864,2.275,5.736,4.946,2.817,2.606,5.606,5.564c3.2,3.38,6.357,7.08,9.443,11.054q3.085,3.975,6.059,8.295c2.864,4.167,5.634,8.554,8.266,13.114s5.051,9.155,7.224,13.721q2.253,4.728,4.153,9.4c1.9,4.654,3.524,9.239,4.855,13.693q1.159,3.9,2.018,7.642c.579,2.541,1.053,5.027,1.411,7.438C197.471,187.887,197.446,194.205,196.34,198.99Z" transform="translate(-69.513 -67.961)" fill="#f2f2f2"/>
      <path id="Tracé_35" data-name="Tracé 35" d="M148.682,194.233q-3.818-1.506-8.028-2.791-3.686-1.122-7.635-2.067a166.154,166.154,0,0,0-22.16-3.651c-3.408-.341-6.887-.59-10.411-.748-3.11-.144-6.262-.218-9.439-.218s-6.329.074-9.443.218c-3.528.158-7.006.411-10.415.748A166.1,166.1,0,0,0,49,189.375q-3.944.942-7.635,2.067-4.2,1.279-8.028,2.791C16.706,200.8,7.544,209.987,7.544,220.107s9.162,19.31,25.79,25.877q3.818,1.506,8.024,2.791,3.686,1.122,7.635,2.064a166.1,166.1,0,0,0,22.163,3.654c3.408.337,6.887.586,10.415.748,3.11.144,6.262.214,9.439.214s6.325-.07,9.435-.214q5.292-.242,10.415-.748a165.659,165.659,0,0,0,22.163-3.654q3.944-.942,7.635-2.067c2.8-.853,5.479-1.783,8.024-2.787,16.631-6.568,25.79-15.757,25.79-25.877S165.314,200.8,148.682,194.233Zm12.889,35.2c-3.587,3.352-9.049,6.529-15.792,9.193q-3.406,1.342-7.15,2.5-3.67,1.132-7.624,2.071c-4.525,1.078-9.309,1.962-14.29,2.647q-4.981.69-10.208,1.1c-5.044.4-10.229.607-15.5.607s-10.453-.2-15.5-.6c-3.479-.274-6.89-.642-10.211-1.1-4.981-.685-9.765-1.569-14.29-2.647q-3.949-.937-7.624-2.071-3.738-1.148-7.15-2.5c-6.743-2.664-12.2-5.841-15.792-9.193-3.314-3.093-5-6.231-5-9.33s1.681-6.238,5-9.33c3.587-3.352,9.049-6.529,15.792-9.193q3.406-1.342,7.15-2.5,3.67-1.132,7.624-2.071c4.525-1.078,9.309-1.962,14.29-2.647,3.321-.46,6.733-.828,10.211-1.1,5.044-.4,10.229-.6,15.5-.6s10.453.2,15.5.607q5.218.406,10.208,1.1c4.981.685,9.765,1.569,14.29,2.647q3.949.937,7.624,2.071,3.738,1.148,7.15,2.5c6.743,2.664,12.2,5.841,15.792,9.193,3.314,3.093,5,6.231,5,9.33S164.885,226.344,161.572,229.437Z" transform="translate(-7.544 -145.522)" fill="#f2f2f2"/>
      <path id="Tracé_36" data-name="Tracé 36" d="M194.708,70.263c-8.765-5.058-21.3-1.72-35.3,9.4q-3.212,2.554-6.427,5.56-2.817,2.627-5.609,5.578a166.34,166.34,0,0,0-14.248,17.365q-3,4.18-5.851,8.646-2.522,3.933-4.9,8.063t-4.532,8.281q-2.438,4.7-4.56,9.393a166.259,166.259,0,0,0-7.919,21.019q-1.158,3.891-2.029,7.649-.99,4.276-1.6,8.34c-1.194,8.042-1.148,15.017.088,20.71A85.585,85.585,0,0,0,131.813,214.5a64.22,64.22,0,0,0,14.736-9.074q3.217-2.554,6.431-5.557,2.817-2.627,5.606-5.574a166.421,166.421,0,0,0,14.244-17.369q3-4.181,5.855-8.649,2.522-3.933,4.9-8.063t4.532-8.277q2.438-4.7,4.563-9.4a166.549,166.549,0,0,0,7.915-21.019q1.153-3.886,2.025-7.645c.663-2.85,1.2-5.637,1.6-8.344C206.85,87.849,203.474,75.325,194.708,70.263Zm-1.734,49.192c-1.33,4.455-2.956,9.039-4.855,13.693q-1.9,4.66-4.153,9.4c-2.173,4.567-4.588,9.158-7.224,13.721s-5.4,8.947-8.266,13.114q-2.97,4.317-6.062,8.3c-3.082,3.97-6.241,7.67-9.439,11.05q-2.785,2.948-5.606,5.567-2.864,2.664-5.736,4.942c-5.679,4.511-11.163,7.649-15.859,9.084-4.335,1.32-7.895,1.207-10.576-.344s-4.563-4.574-5.585-8.99c-1.106-4.784-1.13-11.1-.063-18.274.358-2.411.832-4.9,1.411-7.438q.853-3.743,2.018-7.642c1.33-4.455,2.956-9.042,4.855-13.7q1.9-4.66,4.153-9.393c2.173-4.567,4.588-9.158,7.224-13.721s5.4-8.951,8.27-13.118q2.964-4.312,6.055-8.291c3.086-3.973,6.245-7.673,9.439-11.054q2.791-2.954,5.609-5.567,2.87-2.664,5.736-4.942C170,81.345,175.483,78.2,180.18,76.771a18.874,18.874,0,0,1,5.483-.916,10.026,10.026,0,0,1,5.093,1.257c2.685,1.548,4.563,4.574,5.585,8.99,1.106,4.784,1.13,11.1.063,18.274-.358,2.411-.832,4.9-1.415,7.438C194.424,114.309,193.747,116.858,192.975,119.455Z" transform="translate(-69.514 -67.961)" fill="#f2f2f2"/>
      <circle id="Ellipse_6" data-name="Ellipse 6" cx="15.687" cy="15.687" r="15.687" transform="translate(67.779 58.898)" fill="#f2f2f2"/>
    </g>
  </g>
</svg>
