<svg xmlns="http://www.w3.org/2000/svg" xmlns:xlink="http://www.w3.org/1999/xlink" width="190" height="185.753" viewBox="0 0 190 185.753">
  <defs>
    <filter id="Tracé_38" x="0" y="0" width="190" height="185.753" filterUnits="userSpaceOnUse">
      <feOffset dy="3" input="SourceAlpha"/>
      <feGaussianBlur stdDeviation="3" result="blur"/>
      <feFlood flood-opacity="0.161"/>
      <feComposite operator="in" in2="blur"/>
      <feComposite in="SourceGraphic"/>
    </filter>
  </defs>
  <g id="_010-github" data-name="010-github" transform="translate(9 6)">
    <path id="Tracé_37" data-name="Tracé 37" d="M172,86a86.022,86.022,0,0,1-72.749,84.985q-1.4.216-2.808.386a85.769,85.769,0,0,1-9.214.618C86.818,172,86.411,172,86,172s-.818,0-1.229-.01a85.778,85.778,0,0,1-9.214-.618q-1.411-.168-2.808-.386A86.006,86.006,0,1,1,172,86Z" fill="#f2f2f2"/>
    <g id="Groupe_7" data-name="Groupe 7" transform="translate(0)">
      <g transform="matrix(1, 0, 0, 1, -9, -6)" filter="url(#Tracé_38)">
        <path id="Tracé_38-2" data-name="Tracé 38" d="M172,86a86.483,86.483,0,0,1-.53,9.586c-.039.351-.077.705-.119,1.057q-.332,2.675-.825,5.3-.095.521-.2,1.032a86.109,86.109,0,0,1-57.09,64.619c-4.36.843-5.908-1.836-5.908-4.128,0-2.833.1-12.093.1-23.6,0-8.024-2.749-13.258-5.831-15.926,14.894-1.657,30.377-6.424,36.52-24.01.123-.344.239-.7.351-1.049q.516-1.606.923-3.352c.081-.347.162-.7.235-1.057a62.808,62.808,0,0,0,1.239-12.967,33.222,33.222,0,0,0-8.853-23.083c.895-2.166,3.84-10.913-.843-22.76,0,0-7.21-2.31-23.627,8.818a81.523,81.523,0,0,0-43.07,0C48.04,33.354,40.816,35.663,40.816,35.663c-4.669,11.847-1.723,20.594-.832,22.76a33.293,33.293,0,0,0-8.863,23.083A62.552,62.552,0,0,0,32.364,94.47c.074.358.151.709.232,1.057q.411,1.748.927,3.356c.112.354.232.705.351,1.049,6.139,17.554,21.581,22.388,36.432,24.077-2.461,2.148-4.69,5.943-5.462,11.5-4.907,2.2-17.355,6-25.024-7.15,0,0-4.549-8.256-13.184-8.863,0,0-8.393-.109-.586,5.227,0,0,5.634,2.647,9.548,12.584,0,0,5.048,15.35,28.973,10.148.039,7.185.116,13.96.116,16.01,0,2.271-1.576,4.935-5.876,4.138A86.119,86.119,0,0,1,1.674,102.975v0c-.07-.341-.137-.685-.2-1.029q-.495-2.622-.825-5.3c-.046-.351-.084-.7-.123-1.057A86,86,0,1,1,172,86Z" transform="translate(9 6)" fill="#222123"/>
      </g>
      <path id="Tracé_39" data-name="Tracé 39" d="M91.638,363.38c-.621-.295-1.3-.172-1.481.267s.147,1.011.772,1.292,1.285.169,1.474-.26C92.621,364.25,92.263,363.661,91.638,363.38Z" transform="translate(-59.832 -241.2)" fill="#222123"/>
      <path id="Tracé_40" data-name="Tracé 40" d="M102.614,372.625c-.565-.6-1.341-.776-1.762-.4a1.313,1.313,0,0,0,.249,1.787c.544.6,1.348.779,1.759.4C103.288,374.028,103.175,373.232,102.614,372.625Z" transform="translate(-66.803 -247.05)" fill="#222123"/>
      <path id="Tracé_41" data-name="Tracé 41" d="M112.856,385.985c-.541-.758-1.39-1.088-1.92-.723s-.541,1.285-.014,2.05,1.393,1.109,1.924.741S113.383,386.761,112.856,385.985Z" transform="translate(-73.398 -255.739)" fill="#222123"/>
      <path id="Tracé_42" data-name="Tracé 42" d="M124.947,400.307c-.741-.705-1.752-.85-2.229-.33a1.656,1.656,0,0,0,.488,2.2c.737.709,1.741.85,2.211.33C125.92,401.988,125.692,401,124.947,400.307Z" transform="translate(-81.326 -265.403)" fill="#222123"/>
      <path id="Tracé_43" data-name="Tracé 43" d="M141.808,410.906c-.983-.305-1.955.014-2.155.691s.439,1.471,1.411,1.766,1.941-.021,2.152-.7S142.78,411.2,141.808,410.906Z" transform="translate(-92.714 -272.79)" fill="#222123"/>
      <path id="Tracé_44" data-name="Tracé 44" d="M162.113,414.186c-1.029.017-1.836.6-1.836,1.313.01.7.843,1.274,1.871,1.25s1.85-.6,1.825-1.309C163.973,414.737,163.134,414.165,162.113,414.186Z" transform="translate(-106.434 -275.045)" fill="#222123"/>
      <path id="Tracé_45" data-name="Tracé 45" d="M183.526,412.659c-.13-.705-1.042-1.12-2.057-.944s-1.723.895-1.6,1.6c.126.685,1.049,1.113,2.05.93S183.645,413.351,183.526,412.659Z" transform="translate(-119.437 -273.378)" fill="#222123"/>
    </g>
  </g>
</svg>
