<svg xmlns="http://www.w3.org/2000/svg" xmlns:xlink="http://www.w3.org/1999/xlink" width="187" height="187" viewBox="0 0 187 187">
  <defs>
    <filter id="Tracé_72" x="0" y="0" width="187" height="187" filterUnits="userSpaceOnUse">
      <feOffset dy="3" input="SourceAlpha"/>
      <feGaussianBlur stdDeviation="3" result="blur"/>
      <feFlood flood-opacity="0.161"/>
      <feComposite operator="in" in2="blur"/>
      <feComposite in="SourceGraphic"/>
    </filter>
  </defs>
  <g id="_032-nodejs" data-name="032-nodejs" transform="translate(9 6)">
    <g transform="matrix(1, 0, 0, 1, -9, -6)" filter="url(#Tracé_72)">
      <path id="Tracé_72-2" data-name="Tracé 72" d="M169,84.5a85.346,85.346,0,1,1-.117-4.442Q169,82.267,169,84.5Z" transform="translate(9 6)" fill="#f2f2f2"/>
    </g>
    <path id="Tracé_73" data-name="Tracé 73" d="M165.964,209.675v-21.97l-19.026-10.985-19.026,10.985v21.97l19.026,10.985Z" transform="translate(-85.691 -118.389)" fill="#3b8739"/>
    <path id="Tracé_74" data-name="Tracé 74" d="M431.592,206.343l12.4,7.16-12.4,7.16-19.025-10.985v-21.97l19.025-10.985,11.53,6.66a84.021,84.021,0,0,1,2.149,15.065l-7.05,4.07v-7.653l-6.629-3.825-6.629,3.825v7.653Z" transform="translate(-276.388 -118.391)" fill="#333"/>
    <path id="Tracé_75" data-name="Tracé 75" d="M466.4,236.757v-4.265l-3.693-2.132-3.694,2.132v4.265l3.694,2.133Z" transform="translate(-307.503 -154.323)" fill="#66a060"/>
    <path id="Tracé_76" data-name="Tracé 76" d="M33.234,187.708V216.68L20.545,209.44V194.589l-6.336-3.66-6.336,3.659V209.44l-7.2,4.111A85.271,85.271,0,0,1,2.2,183.659l12.013-6.936Z" transform="translate(0 -118.391)" fill="#333"/>
    <rect id="Rectangle_7" data-name="Rectangle 7" width="38.052" height="21.969" transform="matrix(0.5, 0.866, -0.866, 0.5, 61.246, 58.331)" fill="#6da75d"/>
    <path id="Tracé_77" data-name="Tracé 77" d="M127.912,231.97l6.533-10.654L127.912,210Z" transform="translate(-85.691 -140.684)" fill="#55a344"/>
    <path id="Tracé_78" data-name="Tracé 78" d="M198.237,198.69l6.343-10.984-19.026-10.985Z" transform="translate(-124.306 -118.389)" fill="#639d57"/>
    <path id="Tracé_79" data-name="Tracé 79" d="M294.989,99.579v29.147l-6.377-3.684-19.028,10.985V158l19.028,10.985L307.637,158V106.349Zm-.035,51.093-6.343,3.663-6.343-3.663V143.35l6.343-3.663,6.343,3.663Z" transform="translate(-180.6 -66.71)" fill="#333"/>
    <g id="Groupe_12" data-name="Groupe 12" transform="translate(64.273 98.561)">
      <path id="Tracé_80" data-name="Tracé 80" d="M255.623,346.268a3.7,3.7,0,0,0-3.809-3.211c-3.435,0-5.788.448-5.788,2.352s6.684,1.9,9.223,2.651,4.78,2.688,3.659,6.124-4.556,3.809-9.858,3.809a6.161,6.161,0,0,1-6.5-6.124h2.987s-.374,2.688,3.136,3.136,6.866.7,7.319-2.016c.6-3.585-11.352-1.792-12.4-5.3-.883-2.966-.374-6.871,5.6-7.468s9.261,2.04,9.261,5.975Z" transform="translate(-226.766 -326.425)" fill="#66a060"/>
      <path id="Tracé_81" data-name="Tracé 81" d="M194.722,332.443l6.6,3.813a4.977,4.977,0,0,0,7.466-4.31V312.968H206.1V331.2a2.718,2.718,0,0,1-4.077,2.354l-4.61-2.661V311.435l16.848-9.726,16.848,9.726V330.89l-16.848,9.726-4.853-2.8-3.169,1.278,8.023,4.632,19.54-11.282V309.881L214.262,298.6l-19.54,11.282v22.561Z" transform="translate(-194.722 -298.6)" fill="#66a060"/>
    </g>
  </g>
</svg>
