<svg xmlns="http://www.w3.org/2000/svg" xmlns:xlink="http://www.w3.org/1999/xlink" width="224.169" height="182.236" viewBox="0 0 224.169 182.236">
  <defs>
    <filter id="bootstrap-5-1" x="0" y="0" width="224.169" height="182.236" filterUnits="userSpaceOnUse">
      <feOffset dy="3" input="SourceAlpha"/>
      <feGaussianBlur stdDeviation="3" result="blur"/>
      <feFlood flood-opacity="0.161"/>
      <feComposite operator="in" in2="blur"/>
      <feComposite in="SourceGraphic"/>
    </filter>
  </defs>
  <g id="bootstrap" transform="translate(-550.5 -2837)">
    <g id="Rectangle_8" data-name="Rectangle 8" transform="translate(603.593 2880.449)" fill="#fff" stroke="#707070" stroke-width="1">
      <rect width="117.178" height="97.044" stroke="none"/>
      <rect x="0.5" y="0.5" width="116.178" height="96.044" fill="none"/>
    </g>
    <g transform="matrix(1, 0, 0, 1, 550.5, 2837)" filter="url(#bootstrap-5-1)">
      <path id="bootstrap-5-1-2" data-name="bootstrap-5-1" d="M42.822,0C31.058,0,22.354,10.3,22.743,21.463c.374,10.728-.112,24.621-3.61,35.952C15.624,68.777,9.692,75.977,0,76.9V87.335c9.692.926,15.624,8.123,19.133,19.487,3.5,11.33,3.984,25.224,3.61,35.952-.39,11.165,8.315,21.463,20.081,21.463H163.363c11.764,0,20.467-10.3,20.077-21.463-.374-10.728.112-24.621,3.61-35.952,3.51-11.364,9.428-18.563,19.12-19.487V76.9c-9.692-.926-15.609-8.123-19.12-19.487-3.5-11.329-3.984-25.224-3.61-35.952C183.829,10.3,175.126,0,163.363,0H42.82Zm96.954,101.1c0,15.375-11.469,24.7-30.5,24.7h-32.4a3.494,3.494,0,0,1-3.494-3.494V41.933a3.494,3.494,0,0,1,3.494-3.494H109.09c15.87,0,26.285,8.6,26.285,21.794a19.516,19.516,0,0,1-15.933,19.009v.483c12.151,1.333,20.333,9.749,20.333,21.373ZM105.742,49.516H87.269V75.609h15.559c12.028,0,18.66-4.843,18.66-13.5C121.487,54,115.785,49.516,105.742,49.516ZM87.269,85.962v28.755h19.153c12.523,0,19.156-5.025,19.156-14.468S118.759,85.96,105.616,85.96H87.269Z" transform="translate(9 6)" fill="#7952b3" fill-rule="evenodd"/>
    </g>
  </g>
</svg>
