<svg xmlns="http://www.w3.org/2000/svg" width="112.28" height="112.696" viewBox="0 0 112.28 112.696">
  <g id="github" transform="translate(-742.275 -5528.886)">
    <path id="Tracé_165" data-name="Tracé 165" d="M55.616,1.093c30.716,0,54.155,23.7,54.155,54.293S85.923,112.68,55.207,112.68c-30.194,0-54.359-25.86-55.192-56-.008-.258,1.678-.776,1.678-1.3C1.693,24.788,24.9,1.093,55.616,1.093Z" transform="translate(743.311 5528.902)" fill="#fff"/>
    <path id="github_1_" data-name="github (1)" d="M56.133,5.329A56.4,56.4,0,0,0,38.4,115.174c2.807.519,3.832-1.221,3.832-2.716,0-1.34-.049-4.884-.077-9.586-15.614,3.4-18.912-7.558-18.912-7.558-2.547-6.512-6.232-8.246-6.232-8.246-5.1-3.495.379-3.425.379-3.425,5.635.4,8.6,5.81,8.6,5.81C31,98.065,39.13,95.581,42.33,94.136A12.031,12.031,0,0,1,45.895,86.6c-12.463-1.425-25.572-6.26-25.572-27.853a21.847,21.847,0,0,1,5.782-15.13c-.582-1.425-2.505-7.158.547-14.912,0,0,4.716-1.516,15.439,5.775a52.99,52.99,0,0,1,28.112.007c10.716-7.291,15.424-5.775,15.424-5.775,3.06,7.761,1.137,13.488.561,14.912a21.805,21.805,0,0,1,5.768,15.13c0,21.649-13.123,26.414-25.628,27.81C68.344,88.3,70.14,91.743,70.14,97c0,7.537-.07,13.614-.07,15.46,0,1.509,1.011,3.263,3.86,2.709A56.4,56.4,0,0,0,56.133,5.329Z" transform="translate(742.275 5523.557)" fill="#5c6bc0"/>
  </g>
</svg>
