<svg xmlns="http://www.w3.org/2000/svg" xmlns:xlink="http://www.w3.org/1999/xlink" width="189.85" height="189.85" viewBox="0 0 189.85 189.85">
  <defs>
    <filter id="Tracé_21" x="0" y="0" width="189.85" height="189.85" filterUnits="userSpaceOnUse">
      <feOffset dy="3" input="SourceAlpha"/>
      <feGaussianBlur stdDeviation="3" result="blur"/>
      <feFlood flood-opacity="0.161"/>
      <feComposite operator="in" in2="blur"/>
      <feComposite in="SourceGraphic"/>
    </filter>
  </defs>
  <g id="php" transform="translate(9 6)">
    <g transform="matrix(1, 0, 0, 1, -9, -6)" filter="url(#Tracé_21)">
      <path id="Tracé_21-2" data-name="Tracé 21" d="M171.85,85.925a85.934,85.934,0,0,1-160.4,42.882,85.952,85.952,0,1,1,160.4-42.882Z" transform="translate(9 6)" fill="#8f9ed1"/>
    </g>
    <g id="Groupe_4" data-name="Groupe 4" transform="translate(3.03 41.441)">
      <path id="Tracé_22" data-name="Tracé 22" d="M49.69,178.239H18.045L9.028,227.03a85.256,85.256,0,0,0,8.421,20.191h2.936l3.493-18.9H41.266c21.172,0,26.865-19.009,28.229-28.345A19.37,19.37,0,0,0,49.69,178.239Zm4.591,23.315c-.775,5.292-4.686,16.07-16.687,16.07H25.855l5.247-28.4H43.051C54.7,189.227,55.056,196.262,54.281,201.554Z" transform="translate(-9.028 -159.855)" fill="#f2f2f2"/>
      <path id="Tracé_23" data-name="Tracé 23" d="M395.11,180.455a20.7,20.7,0,0,0-9.6-2.217H353.865L341.117,247.22H356.2l3.493-18.9h17.388c9.417,0,15.772-3.76,20.04-8.757a86.578,86.578,0,0,0-2.016-39.112Zm-5.008,21.1c-.775,5.292-4.686,16.07-16.691,16.07H361.676l5.247-28.4h11.949C390.519,189.226,390.876,196.261,390.1,201.554Z" transform="translate(-229.653 -159.855)" fill="#f2f2f2"/>
      <path id="Tracé_24" data-name="Tracé 24" d="M224.8,142.08H206.475l3.44-18.612H194.889l-12.749,68.98h15.025L204.5,152.78h9.6c6.374,0,10.7,1.366,9.789,7.285s-6.147,32.1-6.147,32.1H233s5.919-29.14,6.83-37.336S233.223,142.08,224.8,142.08Z" transform="translate(-124.036 -123.468)" fill="#f2f2f2"/>
    </g>
  </g>
</svg>
