<svg xmlns="http://www.w3.org/2000/svg" width="143.663" height="143.102" viewBox="0 0 143.663 143.102">
  <g id="web-settings" transform="translate(0 -1)">
    <path id="Tracé_91" data-name="Tracé 91" d="M131.036,1H12.627A12.641,12.641,0,0,0,0,13.627V114.639a12.641,12.641,0,0,0,12.627,12.627c25.117,0,22.865,0,23.184-.009l9.237,9.237a4.21,4.21,0,0,0,5.952,0l4.5-4.5a37.576,37.576,0,0,0,3.7,1.537v6.365a4.209,4.209,0,0,0,4.209,4.209H80.249a4.209,4.209,0,0,0,4.209-4.209v-6.365a37.569,37.569,0,0,0,3.7-1.537l4.5,4.5a4.21,4.21,0,0,0,5.952,0l9.228-9.228h23.193a12.641,12.641,0,0,0,12.627-12.627V13.627A12.641,12.641,0,0,0,131.036,1ZM12.627,9.418h118.41a4.214,4.214,0,0,1,4.209,4.209V34.671H8.418V13.627A4.214,4.214,0,0,1,12.627,9.418ZM95.64,127.565l-3.73-3.73a4.209,4.209,0,0,0-5.121-.645,29.111,29.111,0,0,1-7.587,3.148,4.209,4.209,0,0,0-3.161,4.076v5.27H67.623v-5.27a4.208,4.208,0,0,0-3.161-4.076,29.1,29.1,0,0,1-7.587-3.148,4.208,4.208,0,0,0-5.121.645l-3.73,3.73-5.953-5.953,3.73-3.73a4.209,4.209,0,0,0,.645-5.121,29.112,29.112,0,0,1-3.148-7.587,4.208,4.208,0,0,0-4.076-3.161h-5.27V93.6h5.27A4.208,4.208,0,0,0,43.3,90.434a29.1,29.1,0,0,1,3.148-7.587,4.209,4.209,0,0,0-.645-5.121L42.07,74l5.953-5.953,3.73,3.73a4.209,4.209,0,0,0,5.121.645,29.112,29.112,0,0,1,7.587-3.148,4.209,4.209,0,0,0,3.161-4.076v-5.27H76.04v5.27A4.208,4.208,0,0,0,79.2,69.27a29.1,29.1,0,0,1,7.587,3.148,4.209,4.209,0,0,0,5.121-.645l3.73-3.73L101.593,74l-3.73,3.73a4.209,4.209,0,0,0-.645,5.121,29.111,29.111,0,0,1,3.148,7.587,4.209,4.209,0,0,0,4.076,3.161h5.27v8.418h-5.27a4.208,4.208,0,0,0-4.076,3.161,29.1,29.1,0,0,1-3.148,7.587,4.209,4.209,0,0,0,.645,5.121l3.73,3.73Zm35.4-8.717H110.713c-.213-.244.243.223-4.695-4.715a37.572,37.572,0,0,0,1.537-3.7h6.365a4.209,4.209,0,0,0,4.209-4.209V89.386a4.209,4.209,0,0,0-4.209-4.209h-6.365a37.571,37.571,0,0,0-1.537-3.7l4.5-4.5a4.21,4.21,0,0,0,0-5.952L98.615,59.114a4.21,4.21,0,0,0-5.952,0l-4.5,4.5a37.571,37.571,0,0,0-3.7-1.537V55.715a4.209,4.209,0,0,0-4.209-4.209H63.413A4.209,4.209,0,0,0,59.2,55.715V62.08a37.573,37.573,0,0,0-3.7,1.537l-4.5-4.5a4.21,4.21,0,0,0-5.952,0L33.141,71.02a4.21,4.21,0,0,0,0,5.952l4.5,4.5a37.572,37.572,0,0,0-1.537,3.7H29.743a4.209,4.209,0,0,0-4.209,4.209v16.835a4.209,4.209,0,0,0,4.209,4.209h6.365a37.572,37.572,0,0,0,1.537,3.7c-4.937,4.937-4.481,4.47-4.695,4.715H12.627a4.214,4.214,0,0,1-4.209-4.209V43.089H135.245v71.551A4.214,4.214,0,0,1,131.036,118.848Z" fill="#fff"/>
    <path id="Tracé_92" data-name="Tracé 92" d="M202.044,271a21.044,21.044,0,1,0,21.044,21.044A21.068,21.068,0,0,0,202.044,271Zm0,33.671a12.627,12.627,0,1,1,12.627-12.627A12.641,12.641,0,0,1,202.044,304.671Z" transform="translate(-130.213 -194.24)" fill="#fff"/>
    <circle id="Ellipse_7" data-name="Ellipse 7" cx="4.5" cy="4.5" r="4.5" transform="translate(17 17.551)" fill="#fff"/>
    <ellipse id="Ellipse_8" data-name="Ellipse 8" cx="4" cy="4.5" rx="4" ry="4.5" transform="translate(34 17.551)" fill="#fff"/>
    <ellipse id="Ellipse_9" data-name="Ellipse 9" cx="4" cy="4.5" rx="4" ry="4.5" transform="translate(51 17.551)" fill="#fff"/>
    <path id="Tracé_93" data-name="Tracé 93" d="M335.209,69.418h25.253a4.209,4.209,0,0,0,0-8.418H335.209a4.209,4.209,0,0,0,0,8.418Z" transform="translate(-238.124 -43.165)" fill="#fff"/>
  </g>
</svg>
