<svg xmlns="http://www.w3.org/2000/svg" width="141" height="140.449" viewBox="0 0 141 140.449">
  <g id="web-development" transform="translate(0 -1)">
    <path id="Tracé_16" data-name="Tracé 16" d="M128.607,1H12.393A12.407,12.407,0,0,0,0,13.393V129.057a12.407,12.407,0,0,0,12.393,12.393H128.607A12.407,12.407,0,0,0,141,129.057V13.393A12.407,12.407,0,0,0,128.607,1ZM12.393,9.262H128.607a4.136,4.136,0,0,1,4.131,4.131V34.047H8.262V13.393A4.136,4.136,0,0,1,12.393,9.262ZM128.607,133.188H12.393a4.136,4.136,0,0,1-4.131-4.131V42.309H132.738v86.748A4.136,4.136,0,0,1,128.607,133.188Z" fill="#fff"/>
    <path id="Tracé_17" data-name="Tracé 17" d="M226.54,196.331a4.131,4.131,0,0,0-5.424,2.17l-24.785,57.832a4.131,4.131,0,0,0,7.594,3.255l24.785-57.832A4.131,4.131,0,0,0,226.54,196.331Z" transform="translate(-142.021 -141.296)" fill="#fff"/>
    <path id="Tracé_18" data-name="Tracé 18" d="M104.014,242.55a4.131,4.131,0,0,0-5.806-.645L77.553,258.428a4.132,4.132,0,0,0,0,6.451L98.208,281.4a4.131,4.131,0,1,0,5.161-6.451l-16.622-13.3,16.622-13.3a4.131,4.131,0,0,0,.645-5.806Z" transform="translate(-55.073 -173.906)" fill="#fff"/>
    <path id="Tracé_19" data-name="Tracé 19" d="M358.365,258.428,337.711,241.9a4.131,4.131,0,1,0-5.161,6.451l16.622,13.3-16.622,13.3a4.131,4.131,0,1,0,5.161,6.451l20.654-16.523A4.132,4.132,0,0,0,358.365,258.428Z" transform="translate(-239.845 -173.905)" fill="#fff"/>
    <circle id="Ellipse_1" data-name="Ellipse 1" cx="4" cy="4" r="4" transform="translate(17 18)" fill="#fff"/>
    <ellipse id="Ellipse_2" data-name="Ellipse 2" cx="3.5" cy="4" rx="3.5" ry="4" transform="translate(34 18)" fill="#fff"/>
    <circle id="Ellipse_3" data-name="Ellipse 3" cx="4" cy="4" r="4" transform="translate(50 18)" fill="#fff"/>
    <path id="Tracé_20" data-name="Tracé 20" d="M335.131,69.262h24.785a4.131,4.131,0,0,0,0-8.262H335.131a4.131,4.131,0,0,0,0,8.262Z" transform="translate(-239.846 -43.477)" fill="#fff"/>
  </g>
</svg>
