<svg xmlns="http://www.w3.org/2000/svg" width="172.375" height="172" viewBox="0 0 172.375 172">
  <g id="wordpress" transform="translate(0.201)">
    <g id="Ellipse_12" data-name="Ellipse 12" transform="translate(0.174 0)" fill="#fff" stroke="#707070" stroke-width="1">
      <circle cx="86" cy="86" r="86" stroke="none"/>
      <circle cx="86" cy="86" r="85.5" fill="none"/>
    </g>
    <path id="Tracé_156" data-name="Tracé 156" d="M93.42,75.56H83.929L109.8,148.706l14.486-41.4L113.06,75.56H103.046V68.59h44.347v6.97H137.007l25.876,73.146,9.3-26.581c12.2-34.055-10-44.664-10-52.264A13.761,13.761,0,0,1,175.945,56.1c.411,0,.81.022,1.2.059A71.9,71.9,0,0,0,67.951,68.59H93.419v6.97Z" transform="translate(-42.064 -22.516)" fill="#00769d"/>
    <path id="Tracé_157" data-name="Tracé 157" d="M36.548,178.58A71.891,71.891,0,0,0,74.742,242.1l-32.45-91.728A71.67,71.67,0,0,0,36.548,178.58Z" transform="translate(-22.717 -92.642)" fill="#00769d"/>
    <path id="Tracé_158" data-name="Tracé 158" d="M340.649,131.547a50.827,50.827,0,0,1-.861,19.7h.286l-1.087,3.107h0a66.994,66.994,0,0,1-2.377,6.793l-24.742,69.315a71.939,71.939,0,0,0,28.781-98.91Z" transform="translate(-192.334 -81.042)" fill="#00769d"/>
    <path id="Tracé_159" data-name="Tracé 159" d="M166.075,307.123a72.243,72.243,0,0,0,43.384.309l-21.033-59.456Z" transform="translate(-102.515 -152.772)" fill="#00769d"/>
    <path id="Tracé_160" data-name="Tracé 160" d="M146.7,25.17A85.937,85.937,0,0,0,25.17,146.7,85.937,85.937,0,1,0,146.7,25.17ZM85.937,165.812a79.875,79.875,0,1,1,79.875-79.875A79.965,79.965,0,0,1,85.937,165.812Z" transform="translate(-0.201)" fill="#00769d"/>
  </g>
</svg>
